<svg xmlns="http://www.w3.org/2000/svg">
  <symbol viewBox="0 0 19 20" id="delete-sharp">
    <path d="M9.808 17H10.808V8H9.808V17ZM13.192 17H14.192V8H13.192V17ZM6 20V6H5V5H9V4.23H15V5H19V6H18V20H6Z" fill="currentColor"/>
</symbol>

  <symbol viewBox="0 0 20.994673 18.542715" id="corner-arrow">
    <path d="M5.09857 14.9566C5.14735 15.0789 5.2198 15.1903 5.31176 15.2845L8.34065 18.2553C8.43479 18.3477 8.54619 18.4206 8.66849 18.4698C8.7908 18.5191 8.92161 18.5438 9.05346 18.5425C9.31975 18.54 9.57411 18.4317 9.76058 18.2416C9.85292 18.1475 9.9258 18.0361 9.97508 17.9138C10.0244 17.7915 10.0491 17.6606 10.0478 17.5288C10.0452 17.2625 9.93696 17.0081 9.74684 16.8217L8.43442 15.5443L18.024 15.4515C18.8196 15.4438 19.5795 15.1203 20.1367 14.5523C20.6938 13.9843 21.0025 13.2182 20.9948 12.4226L20.9561 8.42278C20.9535 8.15758 20.8457 7.90425 20.6564 7.71854C20.467 7.53283 20.2116 7.42994 19.9464 7.43251C19.6812 7.43507 19.4279 7.54289 19.2422 7.73223C19.0565 7.92157 18.9536 8.17693 18.9562 8.44214L18.9949 12.4419C18.9975 12.7072 18.8946 12.9625 18.7088 13.1519C18.5231 13.3412 18.2698 13.449 18.0046 13.4516L8.41506 13.5444L9.70251 12.2419C9.79534 12.148 9.86866 12.0367 9.91824 11.9144C9.96783 11.792 9.9927 11.6611 9.99143 11.529C9.99015 11.397 9.96275 11.2666 9.9108 11.1452C9.85885 11.0239 9.78339 10.914 9.68877 10.8219C9.5949 10.7291 9.48359 10.6558 9.36124 10.6062C9.2389 10.5566 9.10794 10.5318 8.97594 10.533C8.84393 10.5343 8.71349 10.5617 8.59212 10.6137C8.47076 10.6656 8.36089 10.7411 8.26884 10.8357L5.29801 13.8646C5.2079 13.9606 5.13762 14.0734 5.09122 14.1966C4.99356 14.441 4.9962 14.7141 5.09857 14.9566Z" fill="currentColor"/>
</symbol></svg>